<?xml version="1.0" encoding="UTF-8"?>
<svg xmlns="http://www.w3.org/2000/svg" width="1024" height="440" viewBox="150 350 730 320">
  <!-- Cropped Logo with original path coordinates -->
  <path d="M 667.750,386.679 C 688.966,358.482 691.691,355.693 695.855,357.922 C 698.802,359.499 734.149,404.055 739.069,412.393 C 740.901,415.497 740.991,416.240 739.824,418.619 C 737.453,423.456 734.272,424.884 724.250,425.614 C 721.167,425.838 718.083,426.063 715,426.287 C 715,445.717 715,465.146 715,484.576 C 715,542.796 715.003,542.866 717.087,543.528 C 718.235,543.892 720.697,543.904 722.560,543.555 C 723.689,543.343 724.818,543.131 725.947,542.919 C 726.039,525.903 726.132,508.889 726.224,491.873 C 726.316,474.857 726.408,457.842 726.500,440.826 C 727.435,440.022 728.371,439.217 729.306,438.413 C 732.017,436.081 732.647,436 748,436 C 763.352,436 763.983,436.082 766.694,438.413 C 767.629,439.217 768.565,440.021 769.500,440.825 C 769.596,454.937 769.692,469.051 769.788,483.163 C 769.947,506.449 769.688,533.435 769.213,543.133 C 768.419,559.337 768.129,561.216 765.636,566.311 C 762.031,573.680 752.802,582.213 745.797,584.654 C 741.303,586.220 737.470,586.491 720.500,586.439 C 702.223,586.383 700.008,586.184 694.798,584.135 C 687.263,581.171 679.658,574.194 675.691,566.604 C 674.627,564.569 673.564,562.535 672.500,560.500 C 672.333,538 672.167,515.500 672,493 C 671.833,470.500 671.667,448 671.500,425.500 C 668.053,425.333 664.605,425.167 661.158,425 C 651.809,424.548 650.633,424.273 648.908,422.139 C 645.020,417.328 645.815,415.832 667.750,386.679 ZM 748,447 C 744.333,447 740.667,447 737,447 C 736.987,458.750 736.974,470.500 736.961,482.250 C 736.940,501.638 736.827,524.853 736.711,533.839 C 736.442,554.616 736.942,554 720.344,554 C 709.537,554 708.775,553.865 706.455,551.545 C 705.637,550.727 704.818,549.909 704,549.091 C 704,527.409 704,505.727 704,484.045 C 704,407.096 702.384,415 718.115,415 C 721.487,415 724.858,415 728.230,415 C 727.640,414.083 727.049,413.167 726.459,412.250 C 723.881,408.247 695.054,371.151 694.030,370.518 C 693.553,370.223 690.525,373.474 687.302,377.741 C 684.079,382.008 676.618,391.880 670.721,399.679 C 664.824,407.478 660,414.115 660,414.429 C 660,414.743 664.243,415 669.429,415 C 676.667,415 679.223,415.365 680.429,416.571 C 681.827,417.969 682,425.635 682,485.890 C 682,562.781 681.829,560.882 689.406,568.459 C 696.233,575.286 700.450,576.218 722.743,575.828 C 743.941,575.457 746.850,574.633 752.932,567.279 C 758.906,560.055 759,559.022 759,500.319 C 759,482.546 759,464.773 759,447 C 755.333,447 751.667,447 748,447 Z" fill="#030303"/>
  <path d="M 755.923,600.923 C 758.724,598.122 759.224,598 767.923,598 C 770.949,598 773.974,598 777,598 C 777,571.974 777,545.949 777,519.923 C 777,493.897 777,467.872 777,441.846 C 777.995,440.851 778.991,439.855 779.986,438.860 C 780.981,437.865 781.977,436.869 782.972,435.874 C 793.727,435.978 804.481,436.083 815.236,436.187 C 825.991,436.291 836.745,436.396 847.500,436.500 C 849.720,437.552 851.939,438.603 854.159,439.655 C 861.770,443.261 867.997,449.180 871.843,456.466 C 874.441,461.388 874.507,461.972 874.821,482.777 C 875.187,506.989 874.624,510.010 868.027,519.222 C 860.471,529.774 852.806,533.083 834,533.908 C 829.500,534.106 825,534.302 820.500,534.500 C 820.500,545 820.500,555.500 820.500,566 C 820.500,576.500 820.500,587 820.500,597.500 C 823.781,597.667 827.061,597.833 830.342,598 C 839.162,598.448 840.382,598.745 842.092,600.861 C 845.710,605.338 844.649,608.570 835.479,621 C 830.813,627.325 821.777,639.590 815.398,648.256 C 807.548,658.920 803.024,664.207 801.400,664.615 C 795.633,666.062 794.986,665.379 767.259,628.570 C 751.458,607.594 750.817,606.029 755.923,600.923 ZM 862.626,461.444 C 859.873,455.531 853.629,449.805 848.142,448.161 C 845.600,447.400 834.593,447 816.134,447 C 806.756,447 797.378,447 788,447 C 788,473.282 788,499.563 788,525.845 C 788,600.959 787.913,604.768 786.171,606.345 C 784.749,607.632 782.302,608 775.171,608 C 769.198,608 766,608.381 766,609.094 C 766,609.696 767.943,612.733 770.317,615.844 C 789.084,640.431 798.280,652 799.060,652 C 799.563,652 804.543,645.812 810.127,638.250 C 815.711,630.688 822.942,620.900 826.194,616.500 C 828.165,613.833 830.136,611.167 832.107,608.500 C 829.017,608.403 825.928,608.307 822.838,608.210 C 816.021,607.996 813.096,607.492 811.784,606.305 C 810.130,604.809 810,601.861 810,566.036 C 810,535.024 810.269,527.014 811.360,525.522 C 812.562,523.878 814.736,523.590 830.110,523.043 C 849.102,522.367 852.392,521.465 858.191,515.342 C 864.103,509.099 864.955,505.285 864.968,485 C 864.979,467.657 864.833,466.183 862.626,461.444 Z" fill="#030303"/>
  <!-- Arrows -->
  <path d="M 748,447 C 751.667,447 755.333,447 759,447 C 759,464.773 759,482.546 759,500.319 C 759,559.022 758.906,560.055 752.932,567.279 C 746.850,574.633 743.941,575.457 722.743,575.828 C 700.450,576.218 696.233,575.286 689.406,568.459 C 681.829,560.882 682,562.781 682,485.890 C 682,425.635 681.827,417.969 680.429,416.571 C 679.223,415.365 676.667,415 669.429,415 C 664.243,415 660,414.743 660,414.429 C 660,414.115 664.824,407.478 670.721,399.679 C 676.618,391.880 684.079,382.008 687.302,377.741 C 690.525,373.474 693.553,370.223 694.030,370.518 C 695.054,371.151 723.881,408.247 726.459,412.250 C 727.049,413.167 727.640,414.083 728.230,415 C 724.858,415 721.487,415 718.115,415 C 702.384,415 704,407.096 704,484.045 C 704,505.727 704,527.409 704,549.091 C 704.818,549.909 705.637,550.727 706.455,551.545 C 708.775,553.865 709.537,554 720.344,554 C 736.942,554 736.442,554.616 736.711,533.839 C 736.827,524.853 736.940,501.638 736.961,482.250 C 736.974,470.500 736.987,458.750 737,447 C 740.667,447 744.333,447 748,447 Z" fill="#F0BE70"/>
  <path d="M 862.626,461.444 C 864.833,466.183 864.979,467.657 864.968,485 C 864.955,505.285 864.103,509.099 858.191,515.342 C 852.392,521.465 849.102,522.367 830.110,523.043 C 814.736,523.590 812.562,523.878 811.360,525.522 C 810.269,527.014 810,535.024 810,566.036 C 810,601.861 810.130,604.809 811.784,606.305 C 813.096,607.492 816.021,607.996 822.838,608.210 C 825.928,608.307 829.017,608.403 832.107,608.500 C 830.136,611.167 828.165,613.833 826.194,616.500 C 822.942,620.900 815.711,630.688 810.127,638.250 C 804.543,645.812 799.563,652 799.060,652 C 798.280,652 789.084,640.431 770.317,615.844 C 767.943,612.733 766,609.696 766,609.094 C 766,608.381 769.198,608 775.171,608 C 782.302,608 784.749,607.632 786.171,606.345 C 787.913,604.768 788,600.959 788,525.845 C 788,499.563 788,473.282 788,447 C 797.378,447 806.756,447 816.134,447 C 834.593,447 845.600,447.400 848.142,448.161 C 853.629,449.805 859.873,455.531 862.626,461.444 ZM 811.250,471.208 C 810.364,471.943 810,476.133 810,485.587 C 810,497.755 810.170,499.021 811.934,499.965 C 812.998,500.534 819.723,501 826.878,501 C 843.318,501 843,501.307 843,485.388 C 843,469.296 843.116,469.401 825.836,469.836 C 818.501,470.021 811.938,470.638 811.250,471.208 Z" fill="#F2887A"/>
</svg>
